#N canvas 361 131 1079 628 10;
#X declare ~/Desktop/installation;
#X obj 761 277 dac~;
#X obj 46 207 throw~ a_out;
#X obj 761 255 catch~ a_out;
#X obj 262 184 throw~ a_out;
#X obj 202 14 ctlin;
#X floatatom 173 45 5 0 0 0 - - -, f 5;
#X floatatom 229 56 5 0 0 0 - - -, f 5;
#X obj 90 83 * 4;
#X obj 90 105 - 2;
#X obj 314 93 * 4;
#X obj 314 115 - 2;
#X floatatom 213 160 5 0 0 0 - - -, f 5;
#X msg 932 252 \; pd dsp 1;
#X msg 1004 252 \; pd dsp 0;
#X obj 59 165 *~ 0.707;
#X obj 276 58 midi-in 3 15 24 34;
#X obj 514 42 midi-in 4 16 25 35;
#X obj 523 187 throw~ a_out;
#X obj 553 67 * 4;
#X obj 553 89 - 2;
#X obj 59 143 player Breathing.wav;
#X obj 298 28 declare ~/Desktop/installation;
#X obj 262 162 player DroneyLament.wav;
#X obj 523 165 player MicrotonalClusters.wav;
#X obj 60 306 * 4;
#X obj 60 328 - 2;
#X obj 21 281 midi-in 5 17 26 36;
#X obj 282 307 * 4;
#X obj 282 329 - 2;
#X obj 543 299 * 4;
#X obj 543 321 - 2;
#X obj 91 440 * 4;
#X obj 91 462 - 2;
#X obj 341 438 * 4;
#X obj 341 460 - 2;
#X obj 602 430 * 4;
#X obj 602 452 - 2;
#X obj 243 282 midi-in 6 18 27 37;
#X obj 504 274 midi-in 7 19 28 38;
#X obj 80 412 midi-in 8 20 29 39;
#X obj 302 413 midi-in 9 21 30 40;
#X obj 563 405 midi-in 10 22 31 41;
#X obj 23 367 player MinorDrone.wav;
#X obj 23 389 throw~ a_out;
#X obj 246 363 player Monologues.wav;
#X obj 246 385 throw~ a_out;
#X obj 503 362 player RandomTalk.wav;
#X obj 503 384 throw~ a_out;
#X obj 41 500 player ShooWa.wav;
#X obj 41 522 throw~ a_out;
#X obj 316 500 player WetMouthSounds.wav;
#X obj 316 522 throw~ a_out;
#X obj 537 519 player pre-mortem_blues.wav;
#X obj 537 541 throw~ a_out;
#X obj 43 57 midi-in 2 14 23 33;
#X connect 2 0 0 0;
#X connect 4 0 5 0;
#X connect 4 1 6 0;
#X connect 7 0 8 0;
#X connect 8 0 20 1;
#X connect 9 0 10 0;
#X connect 10 0 11 0;
#X connect 10 0 22 1;
#X connect 14 0 1 0;
#X connect 15 0 22 0;
#X connect 15 1 9 0;
#X connect 15 2 22 2;
#X connect 15 3 22 3;
#X connect 16 0 23 0;
#X connect 16 1 18 0;
#X connect 16 2 23 2;
#X connect 16 3 23 3;
#X connect 18 0 19 0;
#X connect 19 0 23 1;
#X connect 20 0 14 0;
#X connect 22 0 3 0;
#X connect 23 0 17 0;
#X connect 24 0 25 0;
#X connect 25 0 42 1;
#X connect 26 0 42 0;
#X connect 26 1 24 0;
#X connect 26 2 42 2;
#X connect 26 3 42 3;
#X connect 27 0 28 0;
#X connect 28 0 44 1;
#X connect 29 0 30 0;
#X connect 30 0 46 1;
#X connect 31 0 32 0;
#X connect 32 0 48 1;
#X connect 33 0 34 0;
#X connect 34 0 50 1;
#X connect 35 0 36 0;
#X connect 36 0 52 1;
#X connect 37 0 44 0;
#X connect 37 1 27 0;
#X connect 37 2 44 2;
#X connect 37 3 44 3;
#X connect 38 0 46 0;
#X connect 38 1 29 0;
#X connect 38 2 46 2;
#X connect 38 3 46 3;
#X connect 39 0 48 0;
#X connect 39 1 31 0;
#X connect 39 2 48 2;
#X connect 39 3 48 3;
#X connect 40 0 50 0;
#X connect 40 1 33 0;
#X connect 40 2 50 2;
#X connect 40 3 50 3;
#X connect 41 0 52 0;
#X connect 41 1 35 0;
#X connect 41 2 52 2;
#X connect 41 3 52 3;
#X connect 42 0 43 0;
#X connect 44 0 45 0;
#X connect 46 0 47 0;
#X connect 48 0 49 0;
#X connect 50 0 51 0;
#X connect 52 0 53 0;
#X connect 54 0 20 0;
#X connect 54 1 7 0;
#X connect 54 2 20 2;
#X connect 54 3 20 3;
