#N canvas 1163 159 724 300 10;
#X obj 122 231 dac~;
#X obj 46 207 throw~ a_out;
#X obj 122 209 catch~ a_out;
#X obj 262 184 throw~ a_out;
#X obj 59 143 player wouldnt.wav;
#X obj 202 14 ctlin;
#X floatatom 173 45 5 0 0 0 - - -, f 5;
#X floatatom 229 56 5 0 0 0 - - -, f 5;
#X obj 43 57 midi-in 2 14 23 33;
#X obj 90 83 * 4;
#X obj 90 105 - 2;
#X obj 314 93 * 4;
#X obj 314 115 - 2;
#X floatatom 213 160 5 0 0 0 - - -, f 5;
#X msg 243 239 \; pd dsp 1;
#X msg 315 239 \; pd dsp 0;
#X obj 59 165 *~ 0.707;
#X obj 262 162 player Backbeat.wav;
#X obj 276 58 midi-in 3 15 24 34;
#X obj 514 42 midi-in 4 16 25 35;
#X obj 523 165 player clean_guitar.wav;
#X obj 523 187 throw~ a_out;
#X obj 553 67 * 4;
#X obj 553 89 - 2;
#X connect 2 0 0 0;
#X connect 4 0 16 0;
#X connect 5 0 6 0;
#X connect 5 1 7 0;
#X connect 8 0 4 0;
#X connect 8 1 9 0;
#X connect 8 2 4 2;
#X connect 8 3 4 3;
#X connect 9 0 10 0;
#X connect 10 0 4 1;
#X connect 11 0 12 0;
#X connect 12 0 13 0;
#X connect 12 0 17 1;
#X connect 16 0 1 0;
#X connect 17 0 3 0;
#X connect 18 0 17 0;
#X connect 18 1 11 0;
#X connect 18 2 17 2;
#X connect 18 3 17 3;
#X connect 19 0 20 0;
#X connect 19 1 22 0;
#X connect 19 2 20 2;
#X connect 19 3 20 3;
#X connect 20 0 21 0;
#X connect 22 0 23 0;
#X connect 23 0 20 1;
