#N canvas 622 372 450 300 10;
#X obj 110 21 ctlin;
#X floatatom 91 83 5 0 0 0 - - -, f 5;
#X floatatom 146 83 5 0 0 0 - - -, f 5;
#X obj 65 151 pack 0 0;
#X floatatom 70 195 5 0 0 0 - - -, f 5;
#X floatatom 165 176 5 0 0 0 - - -, f 5;
#X obj 215 223 single_bang;
#X obj 311 221 single_bang;
#X obj 74 272 outlet;
#X obj 151 258 outlet;
#X obj 215 245 outlet;
#X obj 311 243 outlet;
#X obj 70 177 route \$1;
#X obj 165 154 route \$2;
#X obj 215 201 sel \$3;
#X obj 311 199 sel \$4;
#X floatatom 23 264 5 0 0 0 - - -, f 5;
#X obj 165 195 / 127;
#X obj 73 221 / 1.27;
#X obj 73 243 dbtorms;
#X connect 0 0 1 0;
#X connect 0 1 2 0;
#X connect 1 0 3 1;
#X connect 2 0 3 0;
#X connect 2 0 14 0;
#X connect 2 0 15 0;
#X connect 3 0 12 0;
#X connect 3 0 13 0;
#X connect 4 0 18 0;
#X connect 5 0 17 0;
#X connect 6 0 10 0;
#X connect 7 0 11 0;
#X connect 12 0 4 0;
#X connect 13 0 5 0;
#X connect 14 0 6 0;
#X connect 15 0 7 0;
#X connect 17 0 9 0;
#X connect 18 0 16 0;
#X connect 18 0 19 0;
#X connect 19 0 8 0;
