#N canvas 337 296 774 623 10;
#X obj 152 121 symbol \$1;
#X obj 153 76 loadbang;
#X floatatom 264 163 5 0 0 0 - - -, f 5;
#X msg 244 109 bang;
#X obj 168 192 print;
#X obj 152 143 pack symbol;
#X obj 127 285 soundfiler;
#X floatatom 127 341 5 0 0 0 - - -, f 5;
#X msg 127 360 set \$1;
#X msg 127 382 6.6624e+07;
#X obj 403 231 array define \$1;
#X obj 161 435 inlet;
#X obj 481 415 phasor~;
#X obj 588 459 * 44100;
#X obj 481 459 +~ 0;
#X floatatom 383 479 5 0 0 0 - - -, f 5;
#X obj 354 526 snapshot~;
#X floatatom 354 548 10 0 0 0 - - -, f 10;
#X obj 481 437 *~;
#X obj 281 486 bang~;
#X obj 270 364 / 44100;
#X floatatom 270 386 5 0 0 0 - - -, f 5;
#X msg 270 427 2;
#X obj 270 449 /;
#X obj 270 405 t b f f;
#X msg 456 320 0;
#X obj 481 554 outlet~;
#X obj 475 490 tabread4~ \$1;
#X floatatom 165 537 5 0 0 0 - - -, f 5;
#X msg 152 552 set \$1;
#X obj 95 426 t b;
#X obj 475 512 *~;
#X msg 605 526 \$1 40;
#X obj 605 548 line~;
#X floatatom 659 458 5 0 0 0 - - -, f 5;
#X obj 397 290 bng 15 250 50 0 empty empty empty 17 7 0 10 -262144
-1 -1;
#X floatatom 259 479 5 0 0 0 - - -, f 5;
#X floatatom 411 375 5 0 0 0 - - -, f 5;
#X obj 576 337 inlet;
#X obj 495 281 inlet;
#X obj 105 443 inlet;
#X obj 589 389 bng 15 250 50 0 empty empty empty 17 7 0 10 -262144
-1 -1;
#X msg 35 217 read -resize -maxsize 5e+08 \$1 \$1;
#X msg 157 467 \$1 40;
#X msg 105 465 \$1 40;
#X obj 157 490 line~;
#X obj 82 532 snapshot~;
#X obj 9 492 bang~;
#X obj 280 545 snapshot~;
#X obj 207 505 bang~;
#X connect 0 0 2 0;
#X connect 0 0 42 0;
#X connect 0 0 5 0;
#X connect 1 0 0 0;
#X connect 3 0 0 0;
#X connect 5 0 4 0;
#X connect 6 0 7 0;
#X connect 7 0 8 0;
#X connect 8 0 9 0;
#X connect 9 0 20 0;
#X connect 9 0 18 1;
#X connect 11 0 43 0;
#X connect 12 0 18 0;
#X connect 13 0 14 1;
#X connect 14 0 27 0;
#X connect 15 0 12 0;
#X connect 16 0 17 0;
#X connect 18 0 14 0;
#X connect 18 0 16 0;
#X connect 19 0 16 0;
#X connect 20 0 21 0;
#X connect 21 0 24 0;
#X connect 22 0 23 0;
#X connect 23 0 12 0;
#X connect 23 0 36 0;
#X connect 24 0 22 0;
#X connect 24 1 23 1;
#X connect 25 0 12 0;
#X connect 27 0 31 0;
#X connect 28 0 30 0;
#X connect 28 0 29 0;
#X connect 29 0 22 0;
#X connect 30 0 9 0;
#X connect 31 0 26 0;
#X connect 32 0 33 0;
#X connect 33 0 31 1;
#X connect 34 0 32 0;
#X connect 35 0 28 0;
#X connect 37 0 12 0;
#X connect 38 0 25 0;
#X connect 38 0 41 0;
#X connect 39 0 35 0;
#X connect 40 0 44 0;
#X connect 42 0 6 0;
#X connect 43 0 45 0;
#X connect 44 0 48 0;
#X connect 45 0 46 0;
#X connect 46 0 28 0;
#X connect 47 0 46 0;
#X connect 48 0 34 0;
#X connect 49 0 48 0;
