#N canvas 82 270 450 610 10;
#X obj 142 72 inlet;
#X obj 127 158 spigot;
#X obj 185 121 tgl 15 0 empty empty empty 17 7 0 10 -262144 -1 -1 0
1;
#X obj 142 94 t b b;
#X obj 237 113 loadbang;
#X msg 237 135 0;
#X obj 129 203 outlet;
#X connect 0 0 3 0;
#X connect 1 0 6 0;
#X connect 2 0 1 1;
#X connect 3 0 1 0;
#X connect 3 1 2 0;
#X connect 4 0 5 0;
#X connect 5 0 2 0;
